<svg id="Capa_1" enable-background="new 0 0 512 512" height="512" viewBox="0 0 512 512" width="512" xmlns="http://www.w3.org/2000/svg"><g><g><circle cx="256" cy="256" fill="#fd9468" r="248.51"/></g><g><path d="m504.515 256c0 137.246-111.269 248.515-248.515 248.515-41.108 0-79.879-9.978-114.035-27.655 29.702 12.544 62.361 19.485 96.637 19.485 137.246 0 248.505-111.269 248.505-248.515 0-96.178-54.631-179.592-134.559-220.9 89.286 37.693 151.967 126.06 151.967 229.07z" fill="#fe7d43"/></g><g><circle cx="256" cy="256" fill="#f9f3f1" r="206.61"/></g><g><path d="m462.608 256c0 114.105-92.503 206.608-206.608 206.608-31.32 0-61.013-6.971-87.619-19.446 20.604 6.901 42.666 10.637 65.597 10.637 114.115 0 206.618-92.503 206.618-206.608 0-82.785-48.688-154.194-118.999-187.163 81.946 27.416 141.011 104.798 141.011 195.972z" fill="#efe2dd"/></g><g><path d="m227.25 148.235c-14.599-22.521-34.348-40.001-61.589-22.618-15.214 9.709-26.297 25.203-32.264 42.236-12.686 36.212-6.657 74.974 10.422 108.66 21.042 41.504 57.321 79.301 98.154 101.6 44.97 24.558 89.472 19.576 127.529-14.733 16.083-14.499 23.807-39.667 4.387-55.283-15.994-12.861-40.33-32.769-61.417-18.998-14.515 9.479-19.044 25.389-38.208 26.71-32.77 2.259-67.59-48.666-71.867-77.07-1.326-8.809 1.072-16.476 6.347-23.501 5.529-7.363 12.168-9.203 18.722-14.314 15.587-12.15 11.629-34.418-.216-52.689z" fill="#fd9468"/></g><g><path d="m369.506 363.384c-38.062 34.307-82.565 39.29-127.528 14.731-40.838-22.302-77.112-60.094-98.156-101.601-12.734-25.108-19.325-53.033-16.599-80.628 1.828 19.176 7.72 38.062 16.599 55.559 21.043 41.507 57.317 79.299 98.156 101.601 44.963 24.559 89.467 19.575 127.528-14.731 5.843-5.273 10.577-11.945 13.313-19.056 6.792 14.762-.679 32.729-13.313 44.125z" fill="#fe7d43"/></g><g><path d="m448.017 86.685c-.082-.093-.166-.184-.252-.272l-.594-.61c-2.888-2.963-7.63-3.023-10.593-.137-2.963 2.888-3.025 7.63-.138 10.593l.464.476c38.767 44 60.114 100.552 60.114 159.265 0 64.379-25.071 124.904-70.593 170.426-45.521 45.522-106.046 70.593-170.425 70.593-64.378 0-124.903-25.071-170.425-70.593-45.523-45.522-70.594-106.047-70.594-170.426 0-64.378 25.071-124.903 70.593-170.426 45.522-45.522 106.047-70.593 170.426-70.593 57.246 0 112.732 20.417 156.238 57.491 3.15 2.686 7.878 2.307 10.559-.843 2.684-3.148 2.307-7.876-.843-10.559-46.214-39.382-105.151-61.07-165.954-61.07-68.381 0-132.667 26.628-181.02 74.98-48.352 48.353-74.98 112.639-74.98 181.02s26.628 132.668 74.98 181.02c48.353 48.352 112.639 74.98 181.02 74.98s132.668-26.628 181.019-74.981c48.353-48.352 74.981-112.639 74.981-181.019 0-62.426-22.723-122.557-63.983-169.315z"/><path d="m256 41.9c-57.188 0-110.953 22.271-151.391 62.708s-62.709 94.203-62.709 151.392 22.271 110.954 62.709 151.392c40.438 40.437 94.202 62.708 151.391 62.708s110.954-22.271 151.392-62.708c40.437-40.438 62.708-94.204 62.708-151.392s-22.271-110.953-62.709-151.391-94.203-62.709-151.391-62.709zm0 413.219c-109.794 0-199.119-89.324-199.119-199.12 0-109.794 89.324-199.119 199.119-199.119s199.12 89.324 199.12 199.119c-.001 109.796-89.325 199.12-199.12 199.12z"/><path d="m378.584 302.26-.513-.413c-16.561-13.321-44.277-35.616-69.693-19.02-6.027 3.936-10.476 8.753-14.402 13.002-6.364 6.89-10.962 11.868-20.226 12.507-26.684 1.882-59.834-43.407-63.946-70.713-.485-3.223-.328-6.514.607-9.644 3.276-10.969 13.424-14.725 21.662-21.147 16.985-13.243 17.559-37.843 1.462-62.672-9.363-14.446-18.858-23.905-29.027-28.917-13.67-6.74-28.096-5.373-42.877 4.059-15.914 10.156-28.451 26.519-35.303 46.074-12.452 35.543-8.612 76.215 10.81 114.524 14.077 27.767 34.576 53.822 59.28 75.352 3.118 2.716 7.849 2.392 10.569-.726 2.718-3.119 2.392-7.85-.726-10.569-23.266-20.275-42.548-44.767-55.761-70.832-17.56-34.635-21.124-71.141-10.034-102.796 5.747-16.402 16.125-30.039 29.224-38.399 12.538-7.999 29.695-12.912 51.275 20.379 8.778 13.539 14.541 32.849 1.897 42.708-6.861 5.349-14.718 8.547-20.107 15.723-6.714 8.943-9.326 18.738-7.764 29.115 2.574 17.093 11.842 33.618 21.954 47.345 10.923 14.828 25.642 29.548 43.895 34.589 8.897 2.457 18.411 2.185 26.892-1.729 6.891-3.18 12.177-8.571 17.25-14.065 3.658-3.962 7.115-7.703 11.587-10.624 15.062-9.834 33.244 2.972 52.112 18.15l.515.415c5.582 4.489 8.506 10.082 8.691 16.625.257 9.129-4.877 19.573-13.399 27.257-35.552 32.05-76.676 36.794-118.924 13.723-4.079-2.228-8.179-4.656-12.187-7.217-3.486-2.225-8.116-1.206-10.345 2.279-2.228 3.486-1.206 8.118 2.279 10.345 4.295 2.744 8.693 5.348 13.072 7.739 19.785 10.805 39.586 16.248 59.029 16.248 23.779 0 46.603-8.617 65.711-22.679 3.953-2.909 7.75-6.027 11.395-9.313 11.87-10.7 18.727-25.207 18.344-38.805-.31-10.976-5.247-20.617-14.278-27.878z"/></g></g></svg>