<svg viewBox="0 -21 512.001 512" xmlns="http://www.w3.org/2000/svg"><path d="m88.09375 329.679688h335.8125c44.511719 0 80.59375-36.082032 80.59375-80.59375 0-44.511719-36.082031-80.59375-80.59375-80.59375h-335.8125zm0 0" fill="#f9cd45"/><path d="m167.347656 418.421875-.347656 44.003906h337.5v-215h-.042969c-.886719-43.742187-36.597656-78.933593-80.550781-78.933593h-335.8125c-1.371094 0-2.738281.035156-4.09375.101562l84.6875 80.492188-1.109375 140.339843" fill="#ecedef"/><path d="m504.457031 247.425781c-.886719-43.742187-36.597656-78.933593-80.550781-78.933593h-23c43.953125 0 79.664062 35.191406 80.550781 78.933593h.042969v215h23v-215zm0 0" fill="#d0cfd1"/><path d="m168.691406 249.085938c0 44.511718-36.085937 80.59375-80.597656 80.59375s-80.59375-36.082032-80.59375-80.59375c0-44.511719 36.082031-80.59375 80.59375-80.59375s80.597656 36.082031 80.597656 80.59375zm0 0" fill="#f9cd45"/><path d="m114.960938 249.085938c0 14.835937-12.027344 26.867187-26.867188 26.867187-14.835938 0-26.863281-12.03125-26.863281-26.867187 0-14.835938 12.027343-26.863282 26.863281-26.863282 14.839844 0 26.867188 12.027344 26.867188 26.863282zm0 0" fill="#f8b53c"/><path d="m88.09375 168.6875h335.8125c44.511719 0 80.59375-36.082031 80.59375-80.59375s-36.082031-80.59375-80.59375-80.59375h-335.8125zm0 0" fill="#ecedef"/><path d="m423.90625 7.5h-23c44.507812 0 80.59375 36.082031 80.59375 80.59375s-36.082031 80.59375-80.59375 80.59375h23c44.507812 0 80.59375-36.082031 80.59375-80.59375s-36.082031-80.59375-80.59375-80.59375zm0 0" fill="#d0cfd1"/><path d="m168.691406 88.09375c0 44.511719-36.085937 80.597656-80.597656 80.597656s-80.59375-36.085937-80.59375-80.597656 36.082031-80.59375 80.59375-80.59375 80.597656 36.082031 80.597656 80.59375zm0 0" fill="#f9cd45"/><path d="m114.960938 88.09375c0 14.835938-12.027344 26.867188-26.867188 26.867188-14.835938 0-26.863281-12.03125-26.863281-26.867188s12.027343-26.863281 26.863281-26.863281c14.839844 0 26.867188 12.027343 26.867188 26.863281zm0 0" fill="#f8b53c"/><g fill="#18191b"><path d="m485.585938 186.203125c-7.621094-7.484375-16.386719-13.398437-25.882813-17.625 30.785156-13.746094 52.296875-44.648437 52.296875-80.484375 0-48.574219-39.519531-88.09375-88.09375-88.09375h-335.8125c-48.574219 0-88.09375 39.519531-88.09375 88.09375 0 35.847656 21.519531 66.753906 52.320312 80.496094-30.800781 13.742187-52.320312 44.652344-52.320312 80.496094 0 48.578124 39.519531 88.09375 88.09375 88.09375h72.398438l-.414063 52.1875c-.03125 4.140624 3.300781 7.523437 7.441406 7.558593h.058594c4.117187 0 7.46875-3.320312 7.5-7.441406l1.109375-140.335937c0-.003907 0-.003907 0-.007813 0-.015625.003906-.035156.003906-.054687 0-30.277344-15.355468-57.03125-38.683594-72.894532h286.398438c1.300781 0 2.59375-.035156 3.878906-.089844 17.808594.925782 34.480469 8.230469 47.292969 20.808594 13.722656 13.46875 21.492187 31.464844 21.882813 50.671875.003906.214844.019531.429688.042968.640625v206.707032h-322.445312l.289062-36.445313c.035156-4.144531-3.296875-7.527344-7.4375-7.558594-.023437 0-.042968 0-.0625 0-4.113281 0-7.464844 3.316407-7.496094 7.4375l-.351562 44.007813c-.015625 2 .769531 3.921875 2.175781 5.339844 1.410157 1.421874 3.328125 2.21875 5.324219 2.21875h337.5c4.144531 0 7.5-3.359376 7.5-7.5v-215c0-.332032-.019531-.660157-.0625-.980469-.671875-22.839844-10.011719-44.207031-26.351562-60.246094zm-61.679688-171.203125c40.304688 0 73.09375 32.789062 73.09375 73.09375 0 39.003906-30.710938 70.972656-69.226562 72.988281-1.285157-.054687-2.574219-.089843-3.867188-.089843-.582031 0-1.144531.070312-1.6875.195312h-285.003906c23.492187-15.839844 38.972656-42.691406 38.972656-73.09375s-15.480469-57.257812-38.972656-73.09375zm-408.90625 73.09375c0-40.304688 32.789062-73.09375 73.09375-73.09375s73.09375 32.789062 73.09375 73.09375c0 38.996094-30.691406 70.953125-69.1875 72.988281-1.296875-.054687-2.597656-.089843-3.90625-.089843s-2.609375.035156-3.902344.089843c-38.496094-2.035156-69.191406-33.992187-69.191406-72.988281zm145.609375 234.085938h-23.394531c9.257812-6.242188 17.269531-14.195313 23.582031-23.402344zm.578125-73.09375c0 40.304687-32.789062 73.09375-73.09375 73.09375s-73.09375-32.789063-73.09375-73.09375c0-38.996094 30.695312-70.953126 69.191406-72.988282 1.292969.058594 2.59375.09375 3.902344.09375h.039062 5.054688c37.933594 2.625 68 34.304688 68 72.894532zm0 0"/><path d="m88.09375 214.722656c-18.949219 0-34.363281 15.414063-34.363281 34.363282 0 18.949218 15.414062 34.367187 34.363281 34.367187s34.367188-15.417969 34.367188-34.367187c0-18.949219-15.417969-34.363282-34.367188-34.363282zm0 53.726563c-10.675781 0-19.363281-8.6875-19.363281-19.363281 0-10.679688 8.6875-19.367188 19.363281-19.367188 10.679688 0 19.367188 8.6875 19.367188 19.367188 0 10.675781-8.6875 19.363281-19.367188 19.363281zm0 0"/><path d="m122.460938 88.09375c0-18.949219-15.417969-34.363281-34.367188-34.363281s-34.363281 15.414062-34.363281 34.363281 15.414062 34.367188 34.363281 34.367188 34.367188-15.417969 34.367188-34.367188zm-53.730469 0c0-10.675781 8.683593-19.363281 19.363281-19.363281s19.367188 8.6875 19.367188 19.363281c0 10.679688-8.6875 19.367188-19.367188 19.367188-10.675781 0-19.363281-8.6875-19.363281-19.367188zm0 0"/></g></svg>