<svg id="Capa_1" enable-background="new 0 0 512.002 512.002" height="512" viewBox="0 0 512.002 512.002" width="512" xmlns="http://www.w3.org/2000/svg"><g><g><path d="m311.33 282.077h35.5v73.776h-35.5z" fill="#b5dcff"/><path d="m300.537 87.389h-265.864l-5.816 4.184-3.02 6v281l3.02 7.667 6.879 3.164h1.495l12.6-4.893v-12.21h31.44l.846-.329h56.275c.001.11.005.219.008.329h.017c.004-.109.007-.219.008-.329h83.738l.329.329h80.013l10.032-17.104v-255.808c0-6.6-5.4-12-12-12z" fill="#73d578"/><g><path d="m28.857 377.403v-69.16l3.891-6.338v-27.417l-3.891-2.678v-172.421c0-6.6 5.4-12 12-12h-21.334c-6.6 0-12 5.4-12 12v172.422l3.89 2.678v27.417l-3.89 6.338v69.16c0 6.6 5.4 12 12 12h17.707l.865-.336c-5.278-1.258-9.238-6.016-9.238-11.665z" fill="#4bce5b"/></g><path d="m44.15 298.673v-17.292c0-5.285-4.284-9.57-9.57-9.57h-8.744v36.432h8.744c5.286 0 9.57-4.284 9.57-9.57z" fill="#ffd500"/><path d="m504.524 312.303c-.01-1.412-.13-2.811-.353-4.188-1.295-7.993-6.481-14.826-13.585-18.713l-23.305-12.751-12.036-10.259-14.488-18.045-56.133-47.65-7.871-13.606h-1.758v173.273h123.086v-40.794l6.442-6.442v-.661c.002-.055.002-.109.001-.164z" fill="#60b9fe"/><path d="m378.089 202.964c0-3.288 1-6.343 2.712-8.877l-4.047-6.995h-15.804c-8.766 0-15.872 7.106-15.872 15.872v152.23l8.106 5.17h33.012l-8.106-5.17v-152.23z" fill="#1ca8ff"/><path d="m492.608 313.129c-2.369 1.921-4.278 3.486-4.278 3.486l-1.5 3.37v37.38h11.253l6.442-2.169v-42.067z" fill="#ffd500"/><path d="m489.105 323.563c0-5.763 4.671-10.434 10.434-10.434h-24.667c-5.763 0-10.434 4.671-10.434 10.434v31.633l2.059 2.169h24.667l-2.059-2.169z" fill="#fbc700"/><path d="m312.537 355.195v33.55h178.853c7.254 0 13.135-5.881 13.135-13.135v-20.415c-7.076 0-93.288 0-191.988 0z" fill="#dbedff"/><path d="m430.576 217.16c-5.259-12.246-15.196-22.023-27.554-26.827l-3.443 3.531v51.25l5.813 7.136h26.666l2.938-2.053 4.75-7.5.824-2.263z" fill="#6b7ed9"/><path d="m403.023 241.742v-51.408c-5.37-2.088-11.196-3.241-17.297-3.241h-8.971v54.649c0 5.805 4.705 10.51 10.51 10.51h26.268c-5.805-.001-10.51-4.706-10.51-10.51z" fill="#4d66d2"/><g><path d="m420.18 322.097h-6.592l-19.833 10.167-15.167 25.833v28.5l8.094 18.167 17.739 14.5 15.759 3.238c21.72-6.363 37.633-26.453 37.633-50.202 0-23.75-15.913-43.84-37.633-50.203z" fill="#7b6c79"/><path d="m382.547 372.299c0-23.749 15.913-43.84 37.633-50.203-4.662-1.366-9.585-2.112-14.682-2.112-28.846 0-52.314 23.468-52.314 52.314s23.468 52.314 52.314 52.314c5.097 0 10.02-.746 14.682-2.112-21.72-6.361-37.633-26.452-37.633-50.201z" fill="#665e68"/><path d="m420.18 353.396h-5.384l-7 12.076v11.125l4.375 11.625 8.009 2.98c5.635-4.386 9.27-11.226 9.27-18.903s-3.636-14.517-9.27-18.903z" fill="#dbedff"/><path d="m410.91 372.299c0-7.677 3.635-14.517 9.27-18.903-4.059-3.159-9.152-5.048-14.682-5.048-13.207 0-23.951 10.744-23.951 23.951s10.744 23.951 23.951 23.951c5.53 0 10.623-1.888 14.682-5.048-5.635-4.386-9.27-11.226-9.27-18.903z" fill="#b5dcff"/></g><path d="m466.508 239.929h-3.597c-1.418.526-2.498.936-2.498.936l-5.168 4.75-1.499 3.167v20.417l2.333 4.531 7.567 2.968h2.86c6.558 0 11.925-5.366 11.925-11.925v-12.918c.002-6.56-5.365-11.926-11.923-11.926z" fill="#dbedff"/><path d="m455.246 264.772v-12.918c0-6.447 5.188-11.729 11.593-11.908-.111-.003-.219-.017-.331-.017h-22.524c-6.558 0-11.925 5.366-11.925 11.925v12.918c0 6.559 5.366 11.925 11.925 11.925h22.524c.112 0 .22-.014.331-.017-6.405-.179-11.593-5.461-11.593-11.908z" fill="#b5dcff"/><path d="m237.973 355.195s-8.098 3.137-8.098 4.512c0 1.374-2.044 24.041-2.044 24.041l10.143 4.997h74.565v-33.55z" fill="#b5dcff"/><g><path d="m205.405 322.097h-6.592l-19.833 10.167-15.167 25.833v28.5l8.094 18.167 17.739 14.5 15.759 3.238c21.72-6.363 37.633-26.453 37.633-50.202 0-23.75-15.913-43.84-37.633-50.203z" fill="#7b6c79"/><path d="m167.772 372.299c0-23.749 15.913-43.84 37.633-50.203-4.662-1.366-9.585-2.112-14.682-2.112-28.846 0-52.314 23.468-52.314 52.314s23.468 52.314 52.314 52.314c5.097 0 10.02-.746 14.682-2.112-21.72-6.361-37.633-26.452-37.633-50.201z" fill="#665e68"/><path d="m205.404 353.396h-5.384l-7 12.076v11.125l4.375 11.625 8.009 2.98c5.635-4.386 9.27-11.226 9.27-18.903s-3.635-14.517-9.27-18.903z" fill="#dbedff"/><path d="m196.135 372.299c0-7.677 3.635-14.517 9.27-18.903-4.059-3.159-9.152-5.048-14.682-5.048-13.207 0-23.951 10.744-23.951 23.951s10.744 23.951 23.951 23.951c5.53 0 10.623-1.888 14.682-5.048-5.635-4.386-9.27-11.226-9.27-18.903z" fill="#b5dcff"/></g><g><path d="m101.433 322.097h-6.592l-19.833 10.167-15.167 25.833v28.5l8.094 18.167 17.739 14.5 15.759 3.238c21.72-6.363 37.633-26.453 37.633-50.202 0-23.75-15.913-43.84-37.633-50.203z" fill="#7b6c79"/><path d="m63.801 372.299c0-23.749 15.913-43.84 37.633-50.203-4.662-1.366-9.585-2.112-14.682-2.112-28.846 0-52.314 23.468-52.314 52.314s23.468 52.314 52.314 52.314c5.097 0 10.02-.746 14.682-2.112-21.72-6.361-37.633-26.452-37.633-50.201z" fill="#665e68"/><path d="m101.433 353.396h-5.383l-7 12.076v11.125l4.375 11.625 8.009 2.98c5.635-4.386 9.27-11.226 9.27-18.903s-3.636-14.517-9.271-18.903z" fill="#dbedff"/><path d="m92.164 372.299c0-7.677 3.635-14.517 9.27-18.903-4.059-3.159-9.152-5.048-14.682-5.048-13.207 0-23.951 10.744-23.951 23.951s10.744 23.951 23.951 23.951c5.53 0 10.623-1.888 14.682-5.048-5.635-4.386-9.27-11.226-9.27-18.903z" fill="#b5dcff"/></g><path d="m7.523 271.811h21.333v36.432h-21.333z" fill="#fbc700"/></g><g><path d="m405.804 341.327c-17.26 0-31.301 14.042-31.301 31.301s14.041 31.3 31.301 31.3 31.301-14.041 31.301-31.3-14.042-31.301-31.301-31.301zm0 47.601c-8.988 0-16.301-7.312-16.301-16.3s7.312-16.301 16.301-16.301 16.301 7.312 16.301 16.301c-.001 8.988-7.313 16.3-16.301 16.3z"/><path d="m86.399 341.327c-17.26 0-31.301 14.042-31.301 31.301s14.041 31.3 31.301 31.3 31.301-14.041 31.301-31.3-14.041-31.301-31.301-31.301zm0 47.601c-8.988 0-16.301-7.312-16.301-16.3s7.312-16.301 16.301-16.301 16.301 7.312 16.301 16.301c0 8.988-7.312 16.3-16.301 16.3z"/><path d="m190.37 341.327c-17.259 0-31.3 14.042-31.3 31.301s14.041 31.3 31.3 31.3c17.26 0 31.302-14.041 31.302-31.3s-14.042-31.301-31.302-31.301zm0 47.601c-8.987 0-16.3-7.312-16.3-16.3s7.312-16.301 16.3-16.301c8.989 0 16.302 7.312 16.302 16.301 0 8.988-7.313 16.3-16.302 16.3z"/><path d="m386.987 280.315h-10.157c-4.143 0-7.5 3.358-7.5 7.5s3.357 7.5 7.5 7.5h10.157c4.143 0 7.5-3.358 7.5-7.5s-3.357-7.5-7.5-7.5z"/><path d="m512.001 312.909c-.092-12.909-7.436-23.736-17.838-29.428l-12.035-6.585c2.365-3.218 3.781-7.176 3.781-11.467v-12.918c0-10.711-8.714-19.425-19.425-19.425h-21.212c-8.672-20.194-8.382-19.634-9.651-22.081-9.752-18.816-28.916-30.756-49.919-30.756h-8.971s-.006 0-.01 0h-15.796c-12.887 0-23.371 10.484-23.371 23.372v70.955h-17.541v-105.299c0-4.142-3.357-7.5-7.5-7.5s-7.5 3.358-7.5 7.5v179.076h-60.357c-9.307-20.729-30.131-35.21-54.287-35.21-21.244 0-41.329 11.484-51.985 30.592-10.175-18.244-29.716-30.592-51.985-30.592-32.801 0-59.485 26.685-59.485 59.485 0 1.734.101 3.708.258 5.421.121 1.323.357 3.139.47 3.854h-8.142c-2.439 0-4.5-2.061-4.5-4.5v-61.66h19.557c9.413 0 17.07-7.658 17.07-17.07v-17.292c0-9.412-7.657-17.07-17.07-17.07h-19.557v-164.922c0-2.439 2.061-4.5 4.5-4.5h73.2c4.143 0 7.5-3.358 7.5-7.5s-3.357-7.5-7.5-7.5h-73.2c-10.752 0-19.5 8.748-19.5 19.5v278.014c0 10.752 8.748 19.5 19.5 19.5h12.614c9.306 20.729 30.13 35.21 54.286 35.21 22.329 0 41.814-12.373 51.985-30.616 10.172 18.243 29.656 30.616 51.985 30.616 24.156 0 44.98-14.481 54.287-35.21h106.861c9.306 20.729 30.13 35.21 54.286 35.21s44.98-14.481 54.287-35.21h31.276c11.379 0 20.636-9.257 20.636-20.635-.001-.348 0-63.011-.002-63.359zm-497.001-33.598h19.557c1.142 0 2.07.929 2.07 2.07v17.292c0 1.141-.929 2.07-2.07 2.07h-19.557zm71.399 137.802c-24.73 0-44.485-20.204-44.485-44.485 0-24.529 19.956-44.485 44.485-44.485s44.485 19.956 44.485 44.485-19.955 44.485-44.485 44.485zm103.971 0c-24.529 0-44.485-19.956-44.485-44.485s19.956-44.485 44.485-44.485c24.723 0 44.486 20.195 44.486 44.485 0 24.266-19.741 44.485-44.486 44.485zm114.644-35.21h-55.885c.465-2.957.728-6.402.728-9.275 0-3.051-.301-6.561-.728-9.275h55.885zm15-92.326h17.541v58.776h-17.541zm27.032 92.326h-27.032v-18.55h27.032c-.945 6.006-.967 12.402 0 18.55zm92.49-128.994c0-3.127 2.268-4.822 4.424-4.822h22.524c2.398 0 4.425 2.026 4.425 4.425v12.918c0 2.308-1.88 4.251-4.158 4.397l-22.79.028c-2.399 0-4.425-2.026-4.425-4.425zm-55.305-57.659h1.471c15.888 0 30.367 9.404 37.311 24.09.473 1 .02-.024 8.054 18.683-2.256 2.01-4.04 4.529-5.167 7.385h-38.658c-1.659 0-3.01-1.35-3.01-3.01v-47.148zm21.573 221.863c-30.369 0-51.95-30.021-42.096-58.832 0-3.61 12.854-30.139 42.096-30.139 24.739 0 44.486 20.165 44.486 44.485 0 24.267-19.741 44.486-44.486 44.486zm51.11-92.893v18.011c-10.936-18.375-30.595-29.088-51.11-29.088-22.671 0-43.279 12.946-53.249 33.001 0-4.624 0-137.881 0-142.522 0-4.616 3.755-8.372 8.371-8.372h8.306v47.149c0 9.931 8.079 18.01 18.01 18.01h37.295v5.021c0 10.708 8.711 19.425 19.424 19.425h.001 21.461l21.541 11.786c4.031 2.206 7.12 5.67 8.736 9.646h-20.85c-9.89-.001-17.936 8.045-17.936 17.933zm40.088 52.048c0 3.107-2.528 5.635-5.636 5.635h-26.804c.988-6.282.928-12.651 0-18.55h32.439v12.915zm0-27.915h-25.088v-24.133c0-1.618 1.316-2.934 2.935-2.934h22.153z"/><path d="m37.757 120.41v123.333c0 4.142 3.357 7.5 7.5 7.5s7.5-3.358 7.5-7.5v-123.333c0-4.142-3.357-7.5-7.5-7.5s-7.5 3.358-7.5 7.5z"/><path d="m70.543 120.41v169.617c0 4.142 3.357 7.5 7.5 7.5s7.5-3.358 7.5-7.5v-169.617c0-4.142-3.357-7.5-7.5-7.5s-7.5 3.358-7.5 7.5z"/><path d="m110.828 297.527c4.143 0 7.5-3.358 7.5-7.5v-169.617c0-4.142-3.357-7.5-7.5-7.5s-7.5 3.358-7.5 7.5v169.617c0 4.142 3.358 7.5 7.5 7.5z"/><path d="m136.114 120.41v169.617c0 4.142 3.357 7.5 7.5 7.5s7.5-3.358 7.5-7.5v-169.617c0-4.142-3.357-7.5-7.5-7.5s-7.5 3.358-7.5 7.5z"/><path d="m168.899 120.41v169.617c0 4.142 3.357 7.5 7.5 7.5s7.5-3.358 7.5-7.5v-169.617c0-4.142-3.357-7.5-7.5-7.5s-7.5 3.358-7.5 7.5z"/><path d="m201.686 120.41v169.617c0 4.142 3.357 7.5 7.5 7.5s7.5-3.358 7.5-7.5v-169.617c0-4.142-3.357-7.5-7.5-7.5s-7.5 3.358-7.5 7.5z"/><path d="m234.472 120.41v169.617c0 4.142 3.357 7.5 7.5 7.5s7.5-3.358 7.5-7.5v-169.617c0-4.142-3.357-7.5-7.5-7.5s-7.5 3.358-7.5 7.5z"/><path d="m267.257 120.41v169.617c0 4.142 3.357 7.5 7.5 7.5s7.5-3.358 7.5-7.5v-169.617c0-4.142-3.357-7.5-7.5-7.5s-7.5 3.358-7.5 7.5z"/><path d="m312.514 141.777c4.143 0 7.5-3.358 7.5-7.5v-34.888c0-10.752-8.748-19.5-19.5-19.5h-172.814c-4.143 0-7.5 3.358-7.5 7.5s3.357 7.5 7.5 7.5h172.813c2.439 0 4.5 2.061 4.5 4.5v34.889c.001 4.142 3.358 7.499 7.501 7.499z"/></g></g></svg>